# xmcd CD database file
#
# Track frame offsets:
#	150
#	26867
#	79018
#	105448
#	134047
#	157450
#	199070
#	224404
#	242714
#
# Disc length: 3951 seconds
#
# Revision: 0
# Processed by: cddbd v1.5.2PL0 Copyright (c) Steve Scherf et al.
# Submitted via: CDex 1.51
#
DISCID=850f6d09
DTITLE=Ken Colyer - I Did It For The Music
DYEAR=2009
DGENRE=Jazz
TTITLE0=Some Of These Days
TTITLE1=Melancholy Blues
TTITLE2=Salutation March
TTITLE3=Take Me To Sleep In My Kentucky Home
TTITLE4=Saint Louis Blues
TTITLE5=Ghost Soldier
TTITLE6=The Thriller Rag
TTITLE7=It Looks Like A Big Time In Town
TTITLE8=Make Me A Pallet On The Floor
EXTD=YEAR: 2009
EXTT0=
EXTT1=
EXTT2=
EXTT3=
EXTT4=
EXTT5=
EXTT6=
EXTT7=
EXTT8=
PLAYORDER=
